<?xml version="1.0" encoding="UTF-8"?>
<svg width="256" height="256" viewBox="0 0 256 256" xmlns="http://www.w3.org/2000/svg" role="img" aria-label="TechNova Academy Logo">
  <defs>
    <linearGradient id="g1" x1="0%" y1="0%" x2="100%" y2="100%">
      <stop offset="0%" stop-color="#667eea"/>
      <stop offset="100%" stop-color="#764ba2"/>
    </linearGradient>
    <linearGradient id="g2" x1="0%" y1="0%" x2="0%" y2="100%">
      <stop offset="0%" stop-color="#ffffff" stop-opacity="0.95"/>
      <stop offset="100%" stop-color="#e2e8f0" stop-opacity="0.3"/>
    </linearGradient>
    <filter id="shadow" x="-20%" y="-20%" width="140%" height="140%">
      <feDropShadow dx="0" dy="6" stdDeviation="8" flood-color="#667eea" flood-opacity="0.25"/>
    </filter>
  </defs>

  <!-- Rounded tile background -->
  <rect x="16" y="16" width="224" height="224" rx="28" fill="url(#g1)" filter="url(#shadow)"/>

  <!-- Stylized TN monogram -->
  <g transform="translate(32,36)">
    <!-- T -->
    <path d="M20 36 h72 a8 8 0 0 1 0 16 h-28 v92 a8 8 0 0 1 -16 0 v-92 h-28 a8 8 0 0 1 0 -16z" fill="#ffffff" opacity="0.95"/>
    <!-- N -->
    <path d="M108 52 v92 a8 8 0 0 0 16 0 v-56 l44 52 a8 8 0 0 0 13 -10 l-45 -53 h32 a8 8 0 0 0 0 -16 h-56 a8 8 0 0 0 -8 8z" fill="url(#g2)"/>
  </g>

  <!-- Accent star / nova burst -->
  <g transform="translate(190,40) rotate(12)">
    <circle cx="0" cy="0" r="6" fill="#fff"/>
    <path d="M0 -20 L4 -4 L20 0 L4 4 L0 20 L-4 4 L-20 0 L-4 -4 Z" fill="#fff" opacity="0.85"/>
  </g>

  <!-- Subtext baseline shine -->
  <rect x="56" y="186" width="144" height="8" rx="4" fill="#ffffff" opacity="0.22"/>
</svg>